<?xml version="1.0" standalone="no"?>
<!DOCTYPE svg PUBLIC "-//W3C//DTD SVG 20010904//EN"
 "http://www.w3.org/TR/2001/REC-SVG-20010904/DTD/svg10.dtd">
<svg version="1.0" xmlns="http://www.w3.org/2000/svg"
 width="300.000000pt" height="137.000000pt" viewBox="0 0 300.000000 137.000000"
 preserveAspectRatio="xMidYMid meet">
<metadata>
Created by potrace 1.10, written by Peter Selinger 2001-2011
</metadata>
<g transform="translate(0.000000,137.000000) scale(0.100000,-0.100000)"
fill="#000000" stroke="none">
<path d="M371 1101 c-29 -11 -60 -26 -70 -33 -46 -35 -95 -87 -113 -123 -29
-55 -35 -162 -14 -244 9 -35 15 -65 14 -66 -2 -1 -25 -14 -53 -30 -143 -80
-126 -120 56 -132 l87 -6 50 -71 c65 -93 182 -227 193 -221 19 12 166 196 206
258 26 39 51 67 61 67 9 0 24 4 32 10 12 8 12 11 -3 27 -15 18 -15 23 9 81 52
128 54 232 8 329 -30 62 -78 107 -154 142 -76 35 -229 41 -309 12z m246 -25
c128 -34 212 -134 213 -250 0 -54 -6 -59 -13 -11 -11 83 -81 172 -167 216 -62
31 -166 37 -244 14 -77 -23 -145 -88 -170 -163 -30 -89 -9 -231 39 -265 21
-16 17 -20 -54 -41 -100 -29 -132 -17 -61 23 35 19 41 20 46 7 3 -9 10 -14 14
-11 4 2 -2 49 -13 102 -25 124 -19 192 25 258 73 110 235 161 385 121z m33
-82 c106 -57 153 -161 131 -289 -21 -119 -53 -165 -116 -165 -17 0 -40 7 -52
15 -20 14 -21 13 -28 -31 -3 -26 -9 -52 -11 -59 -4 -9 18 -7 78 6 107 24 109
24 72 -9 -17 -15 -46 -47 -65 -72 -60 -81 -132 -160 -144 -160 -7 0 -54 50
-104 110 -51 61 -97 110 -104 110 -8 0 -8 3 1 9 8 4 64 9 125 10 61 1 112 3
114 4 4 5 20 117 16 117 -2 0 -13 -5 -24 -10 -45 -25 -181 -51 -289 -55 l-115
-5 66 19 c37 10 125 39 196 65 124 45 129 48 139 82 6 19 8 33 5 31 -3 -2 -58
-28 -121 -59 -133 -65 -128 -66 -155 44 -31 123 0 225 83 281 56 37 97 47 178
43 55 -2 82 -9 124 -32z"/>
<path d="M373 926 c-29 -13 -52 -50 -39 -63 7 -8 84 -5 97 2 5 3 18 1 30 -6
16 -8 35 -8 80 2 33 7 59 16 59 19 0 14 -50 35 -100 41 -30 4 -64 10 -75 13
-11 3 -34 -1 -52 -8z m66 -25 c10 -7 5 -11 -17 -16 -36 -8 -62 3 -41 16 18 11
40 11 58 0z"/>
<path d="M602 842 c-19 -12 -5 -65 15 -58 8 3 21 6 29 6 11 0 14 8 12 28 -3
28 -31 40 -56 24z"/>
<path d="M608 754 c-35 -18 -54 -77 -39 -116 14 -37 68 -70 101 -63 34 8 80
60 80 91 0 52 -50 105 -98 104 -9 -1 -29 -7 -44 -16z m84 -41 c26 -23 23 -59
-6 -78 -48 -32 -100 32 -61 75 22 24 43 25 67 3z"/>
<path d="M381 433 c-1 -38 101 -153 137 -153 30 0 126 125 120 156 -3 14 -19
-1 -63 -60 l-59 -78 -26 29 c-14 16 -44 52 -67 79 -35 41 -42 45 -42 27z"/>
<path d="M1993 962 c-12 -2 -34 -17 -48 -34 -26 -30 -27 -35 -23 -141 3 -105
4 -110 31 -133 41 -35 88 -32 121 7 15 18 26 43 26 60 0 24 -4 29 -25 29 -19
0 -25 -5 -25 -23 0 -43 -35 -60 -64 -32 -18 18 -21 166 -5 197 18 33 69 16 69
-24 0 -13 8 -18 25 -18 20 0 25 5 25 25 0 54 -52 96 -107 87z"/>
<path d="M1020 935 c0 -22 4 -25 33 -25 l32 0 -3 -140 -4 -140 31 0 32 0 -2
138 -1 137 31 3 c25 3 31 8 31 28 0 24 -1 24 -90 24 -89 0 -90 0 -90 -25z"/>
<path d="M1320 795 l0 -165 28 0 27 0 -3 75 c-4 72 -3 75 18 75 48 0 60 -16
60 -85 0 -65 0 -65 29 -65 l29 0 -5 68 c-3 37 -10 75 -15 85 -6 12 -4 24 7 39
24 35 19 76 -14 109 -27 26 -36 29 -95 29 l-66 0 0 -165z m124 99 c32 -32 11
-64 -41 -64 -32 0 -33 1 -33 40 0 38 2 40 29 40 16 0 37 -7 45 -16z"/>
<path d="M1657 803 c-15 -87 -27 -161 -27 -165 0 -5 11 -8 25 -8 18 0 25 5 25
20 0 16 7 20 34 20 25 0 35 -5 39 -20 3 -14 14 -20 32 -20 23 0 26 3 22 23 -3
12 -16 86 -29 164 l-23 143 -35 0 -35 0 -28 -157z m78 -15 l7 -68 -27 0 c-19
0 -26 4 -22 14 3 8 9 42 13 76 8 75 20 67 29 -22z"/>
<path d="M2235 795 l0 -165 28 0 c27 0 27 1 27 64 0 36 5 68 10 71 6 4 24 -24
42 -64 28 -64 34 -71 59 -71 16 0 29 2 29 5 0 3 -21 47 -47 99 l-47 94 25 39
c14 21 34 50 43 66 l18 27 -29 0 c-24 0 -34 -9 -63 -57 l-35 -58 -3 58 c-3 55
-4 57 -30 57 l-27 0 0 -165z"/>
<path d="M2550 795 l0 -165 75 0 75 0 0 30 c0 29 -1 30 -50 30 l-50 0 0 135 0
135 -25 0 -25 0 0 -165z"/>
<path d="M2806 858 c30 -90 33 -110 28 -165 l-7 -63 32 0 31 0 0 73 c0 55 7
95 30 162 17 49 30 90 30 93 0 2 -12 2 -27 0 -24 -3 -29 -10 -43 -68 -18 -72
-22 -71 -40 13 -12 53 -15 57 -41 57 l-28 0 35 -102z"/>
<path d="M1107 439 l-14 -34 -6 28 c-4 15 -12 27 -17 27 -6 0 -4 -13 5 -30 8
-16 16 -42 16 -57 1 -20 3 -22 6 -8 2 11 11 37 20 58 9 20 13 40 10 43 -3 4
-12 -9 -20 -27z"/>
<path d="M1242 418 c-2 -61 3 -70 36 -61 19 5 22 12 22 54 0 27 -4 49 -10 49
-5 0 -10 -20 -10 -45 0 -33 -4 -45 -14 -45 -11 0 -16 15 -19 53 l-3 52 -2 -57z"/>
<path d="M1462 423 c-2 -54 -8 -63 -30 -41 -9 9 -12 8 -12 -5 0 -21 27 -34 41
-20 6 6 8 34 6 64 l-3 54 -2 -52z"/>
<path d="M1511 461 c-8 -5 -11 -25 -9 -57 3 -45 5 -49 28 -49 23 0 25 4 28 47
2 37 -1 49 -16 57 -10 5 -24 6 -31 2z m27 -53 c-2 -24 -7 -43 -13 -43 -5 0
-11 19 -13 43 -3 33 0 42 13 42 13 0 16 -9 13 -42z"/>
<path d="M1589 465 c-9 -13 1 -115 11 -115 32 0 40 14 38 69 l-2 56 -3 -52
c-3 -37 -8 -53 -18 -53 -10 0 -15 16 -17 53 -2 28 -6 48 -9 42z"/>
<path d="M1962 433 c-2 -31 -6 -43 -17 -43 -10 0 -15 11 -15 35 0 19 -4 35
-10 35 -16 0 -12 -57 5 -74 8 -8 15 -21 15 -28 0 -7 7 0 16 17 8 16 13 45 11
65 -3 33 -4 33 -5 -7z"/>
<path d="M2172 418 c-2 -60 6 -73 38 -63 16 5 20 15 20 56 0 27 -4 49 -10 49
-5 0 -10 -20 -10 -45 0 -33 -4 -45 -14 -45 -11 0 -16 15 -19 53 l-3 52 -2 -57z"/>
<path d="M2503 410 c0 -36 2 -50 4 -32 2 17 2 47 0 65 -2 17 -4 3 -4 -33z"/>
<path d="M2643 463 c-19 -7 -15 -34 8 -59 12 -13 18 -28 14 -35 -6 -9 -12 -7
-22 7 -14 19 -15 19 -11 -1 2 -12 11 -20 23 -20 28 0 32 40 6 57 -12 7 -21 18
-21 25 0 17 27 17 33 1 4 -8 6 -7 6 3 1 18 -17 29 -36 22z"/>
<path d="M2771 461 c-8 -5 -11 -25 -9 -57 2 -38 7 -50 22 -52 24 -5 36 14 36
60 0 39 -24 64 -49 49z m27 -53 c-2 -24 -7 -43 -13 -43 -5 0 -11 19 -13 43 -3
33 0 42 13 42 13 0 16 -9 13 -42z"/>
<path d="M1152 408 c3 -49 5 -53 28 -53 23 0 25 3 25 50 0 47 -1 50 -28 53
-28 3 -28 3 -25 -50z m46 -1 c3 -32 0 -37 -17 -37 -18 0 -21 6 -21 41 0 33 3
40 18 37 12 -2 18 -14 20 -41z"/>
<path d="M1332 403 c1 -54 2 -55 5 -13 4 40 23 84 23 52 0 -7 5 -12 10 -12 6
0 10 7 10 15 0 9 -9 15 -25 15 -24 0 -25 -2 -23 -57z"/>
<path d="M1682 403 l2 -58 3 53 c4 49 16 68 26 40 2 -7 8 -10 12 -6 11 11 -4
28 -26 28 -17 0 -19 -7 -17 -57z"/>
<path d="M1740 405 c0 -30 5 -55 10 -55 6 0 10 23 10 50 0 37 4 50 14 50 11 0
16 -15 19 -52 l3 -53 2 58 2 57 -30 0 c-30 0 -30 -1 -30 -55z"/>
<path d="M1834 447 c-3 -8 -4 -32 -2 -53 3 -34 6 -39 27 -39 13 0 26 5 28 11
2 7 -6 10 -22 7 -18 -4 -25 -1 -25 11 0 11 9 16 26 16 22 0 25 4 22 28 -2 19
-9 28 -26 30 -13 2 -24 -3 -28 -11z"/>
<path d="M2084 446 c-3 -8 -4 -31 -2 -52 3 -34 6 -39 28 -39 23 0 25 4 28 53
3 50 2 52 -23 52 -14 0 -28 -6 -31 -14z m46 -36 c0 -33 -3 -40 -20 -40 -16 0
-20 7 -20 33 0 36 6 47 27 47 9 0 13 -13 13 -40z"/>
<path d="M2262 403 c1 -54 2 -55 5 -13 5 51 19 73 33 50 8 -13 10 -12 10 3 0
12 -8 17 -25 17 -24 0 -25 -2 -23 -57z"/>
<path d="M2372 403 l1 -58 6 49 c8 70 31 73 33 4 l1 -53 6 49 c8 69 31 74 31
7 0 -29 5 -51 11 -51 6 0 9 21 7 53 l-3 52 -47 3 -48 2 2 -57z"/>
<path d="M2544 445 c-5 -11 3 -26 21 -43 29 -27 19 -46 -11 -21 -14 12 -16 11
-13 -6 5 -25 47 -33 55 -10 4 10 -3 27 -21 45 -28 29 -19 54 12 28 14 -11 16
-11 11 2 -7 22 -47 25 -54 5z"/>
<path d="M2710 405 c0 -30 5 -55 10 -55 6 0 10 25 10 55 0 30 -4 55 -10 55 -5
0 -10 -25 -10 -55z"/>
<path d="M2852 403 l1 -58 6 49 c8 69 31 74 31 7 0 -28 5 -51 10 -51 11 0 14
69 4 94 -3 9 -17 16 -30 16 -23 0 -24 -3 -22 -57z"/>
</g>
</svg>
